<?xml version="1.0" encoding="utf-8"?>
<!-- Generator: Adobe Illustrator 16.0.0, SVG Export Plug-In . SVG Version: 6.00 Build 0)  -->
<!DOCTYPE svg PUBLIC "-//W3C//DTD SVG 1.1//EN" "http://www.w3.org/Graphics/SVG/1.1/DTD/svg11.dtd">
<svg version="1.1" id="Layer_1" xmlns="http://www.w3.org/2000/svg" xmlns:xlink="http://www.w3.org/1999/xlink" x="0px" y="0px"
	 width="667.554px" height="485.511px" viewBox="27.946 33.644 667.554 485.511"
	 enable-background="new 27.946 33.644 667.554 485.511" xml:space="preserve">
<path fill="#4DBD33" d="M269.432,288.898l48.532-32.104c12.13-8.027,12.13-8.027,12.13-40.135l-48.532,32.104
	C269.432,256.794,269.432,256.794,269.432,288.898z M330.094,168.5l-48.522,32.104c-12.131,8.026-12.131,8.026-12.131,40.136
	l48.523-32.106C330.094,200.604,330.094,200.604,330.094,168.5z M245.169,288.898c0-32.104,0-32.104-12.135-40.135L184.5,216.659
	c0,32.104,0,32.104,12.135,40.135L245.169,288.898z M269.432,337.056l48.532-32.102c12.13-8.027,12.13-8.027,12.13-40.138
	l-48.522,32.107C269.432,304.954,269.432,304.954,269.432,337.056z M245.169,337.056c0-32.102,0-32.102-12.135-40.132L184.5,264.816
	c0,32.107,0,32.107,12.135,40.138L245.169,337.056z M269.432,385.22l48.532-32.106c12.13-8.026,12.13-8.026,12.13-40.134
	l-48.522,32.107C269.432,353.113,269.432,353.113,269.432,385.22z M245.169,385.22c0-32.106,0-32.106-12.135-40.133L184.5,312.979
	c0,32.107,0,32.107,12.135,40.134L245.169,385.22z M245.169,240.74c0-32.106,0-32.106-12.135-40.136L184.5,168.5
	c0,32.104,0,32.104,12.135,40.134L245.169,240.74z M257.302,409.296L184.5,361.139c0,32.107,0,32.107,12.135,40.138l48.534,32.102
	v24.081h24.271v-24.081l48.523-32.102c12.13-8.03,12.13-8.03,12.13-40.138L257.302,409.296z M522.448,340.482l34.256-22.661
	c8.562-5.666,8.562-5.666,8.562-28.328l-34.256,22.66C522.448,317.821,522.448,317.821,522.448,340.482z M565.266,255.5
	l-34.249,22.661c-8.562,5.665-8.562,5.665-8.562,28.329l34.25-22.662C565.266,278.161,565.266,278.161,565.266,255.5z
	 M505.322,340.482c0-22.661,0-22.661-8.564-28.329l-34.258-22.66c0,22.66,0,22.66,8.565,28.328L505.322,340.482z M522.448,374.474
	l34.256-22.659c8.562-5.666,8.562-5.666,8.562-28.33l-34.249,22.662C522.448,351.814,522.448,351.814,522.448,374.474z
	 M505.322,374.474c0-22.659,0-22.659-8.564-28.327L462.5,323.484c0,22.662,0,22.662,8.565,28.33L505.322,374.474z M522.448,408.47
	l34.256-22.662c8.562-5.665,8.562-5.665,8.562-28.328l-34.249,22.663C522.448,385.808,522.448,385.808,522.448,408.47z
	 M505.322,408.47c0-22.662,0-22.662-8.564-28.327L462.5,357.479c0,22.663,0,22.663,8.565,28.328L505.322,408.47z M505.322,306.49
	c0-22.662,0-22.662-8.564-28.329L462.5,255.5c0,22.661,0,22.661,8.565,28.328L505.322,306.49z M513.887,425.464L462.5,391.473
	c0,22.662,0,22.662,8.565,28.33l34.257,22.659v16.997h17.132v-16.997l34.25-22.659c8.562-5.668,8.562-5.668,8.562-28.33
	L513.887,425.464z"/>
<path d="M513.473,519.156c-12.625,0-35.268,0-61.941,0c0.387-3.32,0.994-6.549,0.994-9.959v-50.736c25.502,0,47.463,0,60.947,0
	c67.037,0,121.361-54.352,121.361-121.361c0-67.03-54.324-121.384-121.361-121.384c-18.67,0-36.246,4.386-52.012,11.958
	l-24.57-24.554c-28.152-63.984-91.762-108.781-166.178-108.781c-100.556,0-182.057,81.501-182.057,182.057
	c0,100.476,81.381,181.917,181.818,182.065v50.736c0,3.424,0.638,6.654,1.001,9.959c-0.244,0-0.533,0-0.776,0
	c-134.076,0-242.753-108.676-242.753-242.761c0-134.059,108.677-242.751,242.753-242.751c91.108,0,170.387,50.257,211.906,124.489
	c10.078-1.735,20.287-3.112,30.838-3.112C614,155.021,695.5,236.535,695.5,337.1C695.529,437.627,614.029,519.156,513.473,519.156z"
	/>
</svg>
